# xmcd
#
# Track frame offsets:
#	150
#	15570
#	39118
#	65669
#
# Disc length: 1493 seconds
#
# Revision: 0
# Processed by: cddbd v1.5.1PL0 Copyright (c) Steve Scherf et al.
# Submitted via: EasyCDDAExtractor 8.1.0.1
#
DISCID=2705d304
DTITLE=Jimmy Eat World - Work
DYEAR=2005
DGENRE=Alternative
TTITLE0=Work
TTITLE1=Drugs or Me (Styrofoam Remix)
TTITLE2=Work (Acoustic)
TTITLE3=Work (Video)
EXTD=
EXTT0=
EXTT1=
EXTT2=
EXTT3=
PLAYORDER=
